<?xml version="1.0" encoding="UTF-8"?>
<svg xmlns="http://www.w3.org/2000/svg" viewBox="0 0 1103.77 1103.77">
  <defs>
    <style>
      .cls-1 {
        fill: #00a0e9;
      }

      .cls-2 {
        fill: #231815;
      }
    </style>
  </defs>
  <path class="cls-1" d="m551.89,0C247.09,0,0,247.09,0,551.88s247.09,551.89,551.89,551.89,551.89-247.09,551.89-551.89S856.68,0,551.89,0Zm0,1069.27c-285.74,0-517.39-231.64-517.39-517.39S266.14,34.5,551.89,34.5s517.39,231.64,517.39,517.38-231.64,517.39-517.39,517.39Z"/>
  <path class="cls-2" d="m945.68,740.47c-8.34,6.04-19.08,9.05-32.23,9.05h-193.73c-17.47,0-29.08-3.87-34.83-11.62-5.75-7.74-6.48-20.27-2.21-37.56l30.37-123.08h-133.84c-5.09,0-9.89-.17-14.41-.51l-25.14,101.7c-4.5,18.01-8.24,31.21-11.21,39.58-2.97,8.37-8.02,15.72-15.13,22.02-7.12,6.3-17.16,9.46-30.13,9.46-12.25,0-22.07-3.07-29.45-9.19-7.39-6.12-12.52-13.01-15.4-20.67-2.88-7.66-6.94-20.76-12.16-39.31l-64.04-237.5-64.85,237.5c-5.04,18.01-9.05,30.94-12.02,38.77-2.97,7.83-8.15,14.86-15.54,21.07-7.39,6.22-17.2,9.32-29.45,9.32-9.91,0-18.06-1.85-24.45-5.54-6.4-3.69-11.58-8.92-15.54-15.67-3.96-6.75-7.21-14.77-9.73-24.05-2.52-9.28-4.77-17.88-6.76-25.8l-65.93-266.68c-3.96-15.49-5.94-27.29-5.94-35.4,0-10.27,3.6-18.91,10.81-25.94,7.2-7.02,16.12-10.54,26.75-10.54,14.59,0,24.41,4.69,29.45,14.05,5.04,9.37,9.46,22.97,13.24,40.8l51.88,231.29,58.09-216.43c4.32-16.57,8.19-29.18,11.62-37.83,3.42-8.65,9-16.12,16.75-22.43,7.74-6.3,18.28-9.46,31.61-9.46s24,3.29,31.48,9.86c7.47,6.58,12.65,13.74,15.54,21.48,2.88,7.75,6.75,20.53,11.62,38.37l58.63,216.43,51.88-231.29c2.52-12.07,4.91-21.52,7.16-28.37,2.25-6.84,6.12-12.97,11.62-18.37,5.49-5.4,13.46-8.11,23.91-8.11s19.32,3.47,26.61,10.4c7.3,6.94,10.94,15.63,10.94,26.07,0,7.39-1.98,19.18-5.94,35.4l-24.81,100.38h140.18c2.8,0,5.51.05,8.13.15l28.87-117c4-16.21,10.65-28.37,19.94-36.48,9.3-8.11,19.89-12.16,31.78-12.16s20.85,4.01,26.35,12.02c5.49,8.02,6.22,20.22,2.18,36.61l-71.15,288.3h162.66c12.97,0,22.14,3.15,27.52,9.46,5.38,6.31,6.89,14.23,4.53,23.78-2.4,9.73-7.77,17.61-16.1,23.64Z"/>
  <path class="cls-1" d="m974.17,758.47c-8.34,6.04-19.08,9.05-32.23,9.05h-193.73c-17.47,0-29.08-3.87-34.83-11.62-5.75-7.74-6.48-20.27-2.21-37.56l30.37-123.08h-133.84c-5.09,0-9.89-.17-14.41-.51l-25.14,101.7c-4.5,18.01-8.24,31.21-11.21,39.58-2.97,8.37-8.02,15.72-15.13,22.02-7.12,6.3-17.16,9.46-30.13,9.46-12.25,0-22.07-3.07-29.45-9.19-7.39-6.12-12.52-13.01-15.4-20.67-2.88-7.66-6.94-20.76-12.16-39.31l-64.04-237.5-64.85,237.5c-5.04,18.01-9.05,30.94-12.02,38.77-2.97,7.83-8.15,14.86-15.54,21.07-7.39,6.22-17.2,9.32-29.45,9.32-9.91,0-18.06-1.85-24.45-5.54-6.4-3.69-11.58-8.92-15.54-15.67-3.96-6.75-7.21-14.77-9.73-24.05-2.52-9.28-4.77-17.88-6.76-25.8l-65.93-266.68c-3.96-15.49-5.94-27.29-5.94-35.4,0-10.27,3.6-18.91,10.81-25.94,7.2-7.02,16.12-10.54,26.75-10.54,14.59,0,24.41,4.69,29.45,14.05,5.04,9.37,9.46,22.97,13.24,40.8l51.88,231.29,58.09-216.43c4.32-16.57,8.19-29.18,11.62-37.83,3.42-8.65,9-16.12,16.75-22.43,7.74-6.3,18.28-9.46,31.61-9.46s24,3.29,31.48,9.86c7.47,6.58,12.65,13.74,15.54,21.48,2.88,7.75,6.75,20.53,11.62,38.37l58.63,216.43,51.88-231.29c2.52-12.07,4.91-21.52,7.16-28.37,2.25-6.84,6.12-12.97,11.62-18.37,5.49-5.4,13.46-8.11,23.91-8.11s19.32,3.47,26.61,10.4c7.3,6.94,10.94,15.63,10.94,26.07,0,7.39-1.98,19.18-5.94,35.4l-24.81,100.38h140.18c2.8,0,5.51.05,8.13.15l28.87-117c4-16.21,10.65-28.37,19.94-36.48,9.3-8.11,19.89-12.16,31.78-12.16s20.85,4.01,26.35,12.02c5.49,8.02,6.22,20.22,2.18,36.61l-71.15,288.3h162.66c12.97,0,22.14,3.15,27.52,9.46,5.38,6.31,6.89,14.23,4.53,23.78-2.4,9.73-7.77,17.61-16.1,23.64Z"/>
</svg>