<?xml version="1.0" encoding="UTF-8"?>
<svg id="uuid-65378ff8-f2f2-43e1-ada5-fdf082828aec" data-name="t1" xmlns="http://www.w3.org/2000/svg" viewBox="0 0 1042.98 1024">
  <defs>
    <style>
      .uuid-cc7c5821-65f4-4525-81e6-0d1041cd31a2 {
        fill: #00aeec;
      }
    </style>
  </defs>
  <path id="uuid-3612238f-5bd7-4dea-ba55-6f56bb5a5e2c" data-name="l2" class="uuid-cc7c5821-65f4-4525-81e6-0d1041cd31a2" d="m124.66,310.12l71.53,196.52,69.62-191.29c5.29-19.42,19.57-36.12,39.82-43.49h0c7.27-2.65,14.72-3.88,22.06-3.84,7.33-.04,14.79,1.19,22.06,3.84h0c20.25,7.37,34.53,24.06,39.82,43.49l69.62,191.29,71.53-196.52c12.04-33.08,48.95-50.29,82.03-38.25h0c33.08,12.04,50.29,48.95,38.25,82.03l-34.41,94.53h126.79l50.34-138.31c12.04-33.08,48.95-50.29,82.03-38.25h0c33.08,12.04,50.29,48.95,38.25,82.03l-100.07,274.95h164.6c10.97,0,21.31,2.8,30.36,7.71,9.97-39.87,15.27-81.6,15.27-124.56C1024.15,229.23,794.92,0,512.15,0,317.69,0,148.56,108.41,61.88,268.08c27.07-1.06,53.05,15.3,62.79,42.04Z"/>
  <path id="uuid-b02006fd-a5da-40e1-b75e-6467ce70468e" data-name="l1" class="uuid-cc7c5821-65f4-4525-81e6-0d1041cd31a2" d="m722.52,756.85c-2.05,0-4.07-.11-6.07-.3-.05,0-.11,0-.16-.01-.75-.07-1.49-.17-2.23-.27-.34-.05-.69-.08-1.03-.13-.54-.08-1.07-.18-1.61-.28-.54-.1-1.08-.18-1.63-.29-.33-.07-.66-.15-1-.22-.74-.16-1.47-.32-2.21-.51-.05-.01-.1-.03-.14-.04-1.95-.51-3.89-1.1-5.82-1.8h0c-12.04-4.38-21.96-12.07-29.15-21.66-.1-.13-.2-.26-.3-.39-.35-.47-.68-.95-1.02-1.43-.34-.48-.68-.96-1-1.46-.09-.13-.17-.27-.26-.4-6.55-10.04-10.38-21.99-10.38-34.81h0c0-2.06.11-4.09.3-6.1,0-.04,0-.08,0-.13.07-.76.17-1.51.27-2.26.04-.33.08-.67.13-1,.08-.55.19-1.09.28-1.63.09-.53.18-1.07.29-1.6.07-.34.15-.68.23-1.02.16-.73.32-1.46.51-2.18.01-.06.03-.11.05-.17.5-1.94,1.09-3.87,1.79-5.79l34.41-94.53h-126.79l-50.34,138.31c-9.45,25.97-34.25,42.16-60.47,42.08-26.23.07-51.02-16.11-60.47-42.08l-71.03-195.15-71.03,195.15c-9.45,25.97-34.25,42.16-60.47,42.08-26.23.07-51.02-16.11-60.47-42.08L15.9,385.53C5.62,425.98.15,468.35.15,512c0,282.77,229.23,512,512,512,194.08,0,362.93-107.99,449.77-267.15h-239.39Z"/>
</svg>